<?xml version="1.0" encoding="UTF-8"?>
<svg width="128px" height="128px" viewBox="0 0 128 128" version="1.1" xmlns="http://www.w3.org/2000/svg" xmlns:xlink="http://www.w3.org/1999/xlink">
    <title>therminal-icon</title>
    <defs>
        <linearGradient x1="50%" y1="1.44927536%" x2="50%" y2="97.1014493%" id="linearGradient-1">
            <stop stop-color="#4B4B4B" offset="0%"></stop>
            <stop stop-color="#3D3D3D" offset="100%"></stop>
        </linearGradient>
    </defs>
    <g id="therminal-icon" stroke="none" stroke-width="1" fill="none" fill-rule="evenodd">
        <g id="Window" transform="translate(9.500000, 15.500000)">
            <rect id="Window-Frame" fill-opacity="0.65" fill="#000000" x="0" y="0" width="109" height="97" rx="4"></rect>
            <g id="Sheet" transform="translate(0.500000, 22.500000)">
                <path d="M0,0 L108,0 L108,70 C108,72.209139 106.209139,74 104,74 L4,74 C1.790861,74 2.705415e-16,72.209139 0,70 L0,0 L0,0 Z" id="Console-Background" fill="#2D2D2D"></path>
                <g id="Text" transform="translate(12.650391, 7.684570)" fill-rule="nonzero">
                    <path d="M6.07763672,10.6962891 C6.19189453,10.6962891 6.29882812,10.6757812 6.3984375,10.6347656 C6.50390625,10.5878906 6.59179688,10.5292969 6.66210938,10.4589844 L6.66210938,10.4589844 L9.29882812,7.82226562 C9.36914062,7.74609375 9.43066406,7.65527344 9.48339844,7.54980469 C9.52441406,7.45605469 9.54492188,7.35351562 9.54492188,7.2421875 C9.54492188,7.13085938 9.52441406,7.02832031 9.48339844,6.93457031 C9.44238281,6.83496094 9.38085938,6.74414062 9.29882812,6.66210938 L9.29882812,6.66210938 L6.66210938,4.02539062 C6.59179688,3.95507812 6.50390625,3.89355469 6.3984375,3.84082031 C6.29882812,3.79980469 6.19189453,3.77929688 6.07763672,3.77929688 C5.96337891,3.77929688 5.85791016,3.80126953 5.76123047,3.84521484 C5.66455078,3.88916016 5.578125,3.94921875 5.50195312,4.02539062 C5.41992188,4.10742188 5.35839844,4.19824219 5.31738281,4.29785156 C5.27636719,4.39160156 5.25585938,4.49414062 5.25585938,4.60546875 C5.25585938,4.71679688 5.27636719,4.82226562 5.31738281,4.921875 C5.36425781,5.02734375 5.42578125,5.11816406 5.50195312,5.19433594 L5.50195312,5.19433594 L6.72363281,6.41601562 L0.817382812,6.41601562 C0.706054688,6.41601562 0.602050781,6.43798828 0.505371094,6.48193359 C0.408691406,6.52587891 0.320800781,6.5859375 0.241699219,6.66210938 C0.162597656,6.73828125 0.099609375,6.82910156 0.052734375,6.93457031 C0.017578125,7.02832031 0,7.13085938 0,7.2421875 C0,7.35351562 0.017578125,7.45605469 0.052734375,7.54980469 C0.099609375,7.65527344 0.162597656,7.74609375 0.241699219,7.82226562 C0.320800781,7.8984375 0.408691406,7.95703125 0.505371094,7.99804688 C0.602050781,8.0390625 0.706054688,8.05957031 0.817382812,8.05957031 L0.817382812,8.05957031 L6.72363281,8.05957031 L5.50195312,9.29003906 C5.42578125,9.36621094 5.36425781,9.45703125 5.31738281,9.5625 C5.27636719,9.65625 5.25585938,9.76171875 5.25585938,9.87890625 C5.25585938,9.99023438 5.27636719,10.0927734 5.31738281,10.1865234 C5.35839844,10.2802734 5.41992188,10.3710938 5.50195312,10.4589844 C5.578125,10.5351562 5.66455078,10.59375 5.76123047,10.6347656 C5.85791016,10.6757812 5.96337891,10.6962891 6.07763672,10.6962891 Z" id="Rightwards-Arrow" fill="#33DD66"></path>
                    <path d="M28.6611328,13.3505859 C29.0302734,13.3505859 30.4189453,13.3154297 30.6123047,13.2802734 L30.6123047,11.8388672 C30.4013672,11.8652344 29.2324219,11.8828125 28.7841797,11.8828125 C27.5625,11.8828125 26.9033203,11.3642578 26.9033203,10.4150391 L26.9033203,5.23828125 L30.6650391,5.23828125 L30.6650391,3.78808594 L26.8769531,3.78808594 L26.8769531,1.11621094 L25.1367188,1.11621094 L25.1367188,3.78808594 L22.6054688,3.78808594 L22.6054688,5.23828125 L25.1367188,5.23828125 L25.1367188,10.4150391 C25.1367188,12.4716797 26.2089844,13.3505859 28.6611328,13.3505859 Z M35.7275391,13.3154297 L35.7275391,7.71679688 C35.7275391,6.16992188 36.7119141,5.14160156 38.1972656,5.14160156 C39.6123047,5.14160156 40.2890625,5.92382812 40.2890625,7.54980469 L40.2890625,13.3154297 L42.046875,13.3154297 L42.046875,7.11914062 C42.046875,4.82519531 40.9130859,3.56835937 38.8300781,3.56835937 C37.3798828,3.56835937 36.2900391,4.23632812 35.7978516,5.4140625 L35.6660156,5.4140625 L35.6660156,0 L33.9609375,0 L33.9609375,13.3154297 L35.7275391,13.3154297 Z M51.7236328,13.3154297 L51.7236328,11.9619141 L48.8144531,11.9619141 L48.8144531,9.04394531 C48.8144531,6.69726562 50.0185547,5.35253906 52.1806641,5.35253906 C52.7080078,5.35253906 53.3320312,5.46679688 53.7626953,5.625 L53.7626953,3.69140625 C53.4462891,3.55957031 52.9277344,3.48925781 52.3828125,3.48925781 C50.5458984,3.48925781 49.4296875,4.37695312 49.0517578,6.17871094 L48.8056641,6.17871094 L48.8056641,3.73535156 L45.0175781,3.73535156 L45.0175781,5.08886719 L47.1005859,5.08886719 L47.1005859,11.9619141 L45.2021484,11.9619141 L45.2021484,13.3154297 L51.7236328,13.3154297 Z M57.1201172,13.3154297 L57.1201172,6.8203125 C57.1201172,5.765625 57.6035156,5.11523438 58.3769531,5.11523438 C59.1064453,5.11523438 59.5019531,5.66015625 59.5019531,6.68847656 L59.5019531,13.3154297 L61.0400391,13.3154297 L61.0400391,6.8203125 C61.0400391,5.765625 61.5146484,5.11523438 62.2705078,5.11523438 C62.9912109,5.11523438 63.3955078,5.66894531 63.3955078,6.69726562 L63.3955078,13.3154297 L64.9423828,13.3154297 L64.9423828,6.15234375 C64.9423828,4.45605469 64.265625,3.55078125 62.9736328,3.55078125 C62.0244141,3.55078125 61.2861328,4.13964844 61.0576172,5.08886719 L60.8642578,5.08886719 C60.6621094,4.11328125 60.0380859,3.55078125 59.1416016,3.55078125 C58.2275391,3.55078125 57.5507812,4.13085938 57.3222656,5.12402344 L57.1289062,5.12402344 L57.1289062,3.73535156 L55.5732422,3.73535156 L55.5732422,13.3154297 L57.1201172,13.3154297 Z" id="thrm" fill="#66CCFF"></path>
                </g>
            </g>
            <g id="Title-Bar" transform="translate(0.500000, 1.000000)">
                <g id="Titlebar-Background">
                    <path d="M4,0 L104,0 C106.209139,-4.05812251e-16 108,1.790861 108,4 L108,21.5 L108,21.5 L0,21.5 L0,4 C-2.705415e-16,1.790861 1.790861,4.05812251e-16 4,0 Z" fill="url(#linearGradient-1)"></path>
                    <g id="Bottom-Borders" transform="translate(0.000000, 20.500000)">
                        <line x1="0" y1="0.5" x2="108" y2="0.5" id="Bottom-Border-1px" stroke="#2B2B2B"></line>
                        <line x1="0" y1="0.75" x2="108" y2="0.75" id="Bottom-Border-0.5px" stroke="#000000" stroke-width="0.5"></line>
                    </g>
                </g>
                <g id="Window-Controls" transform="translate(8.000000, 4.500000)">
                    <circle id="Zoom" fill="#53C22B" cx="46" cy="6" r="6"></circle>
                    <circle id="Minimise" fill="#E6C029" cx="26" cy="6" r="6"></circle>
                    <circle id="Close" fill="#FF5A52" cx="6" cy="6" r="6"></circle>
                </g>
            </g>
            <rect id="Window-Rim-Highlight" stroke-opacity="0.15" stroke="#FFFFFF" x="1" y="1" width="107" height="95" rx="3.5"></rect>
        </g>
    </g>
</svg>