<?xml version="1.0" encoding="UTF-8"?>
<svg width="414px" height="128px" viewBox="0 0 414 128" version="1.1" xmlns="http://www.w3.org/2000/svg" xmlns:xlink="http://www.w3.org/1999/xlink">
    <title>Therminal-logotype</title>
    <g id="Therminal-logotype" stroke="none" stroke-width="1" fill="none" fill-rule="evenodd">
        <path d="M54.0117188,92 L54.0117188,45.359375 L70.3398438,45.359375 L70.3398438,35.6328125 L25.9257812,35.6328125 L25.9257812,45.359375 L42.2148438,45.359375 L42.2148438,92 L54.0117188,92 Z M87.5664062,92 L87.5664062,68.09375 C87.5664062,62.5859375 90.7304688,58.796875 96.1210938,58.796875 C101.316406,58.796875 103.972656,62.078125 103.972656,67.46875 L103.972656,92 L115.378906,92 L115.378906,65.046875 C115.378906,55.359375 110.066406,49.34375 100.769531,49.34375 C94.4023438,49.34375 89.8320312,52.3125 87.6054688,57.5859375 L87.3710938,57.5859375 L87.3710938,35.6328125 L76.1601562,35.6328125 L76.1601562,92 L87.5664062,92 Z M141.316406,49.2265625 C153.503906,49.2265625 161.199219,57.46875 161.199219,70.203125 L161.199219,70.203125 L161.199219,73.6796875 L132.332031,73.6796875 L132.332031,74.3828125 C132.332031,80.359375 136.121094,84.4609375 141.941406,84.4609375 C146.121094,84.4609375 149.324219,82.390625 150.378906,79.1875 L150.378906,79.1875 L160.847656,79.1875 C159.597656,87.390625 152.097656,92.8984375 141.746094,92.8984375 C128.855469,92.8984375 121.121094,84.65625 121.121094,71.2578125 C121.121094,57.8984375 128.933594,49.2265625 141.316406,49.2265625 Z M141.433594,57.6640625 C136.433594,57.6640625 132.839844,61.453125 132.449219,66.6875 L132.449219,66.6875 L150.222656,66.6875 C149.988281,61.3359375 146.511719,57.6640625 141.433594,57.6640625 Z M178.464844,92 L178.464844,68.6015625 C178.464844,62.703125 181.746094,59.265625 187.371094,59.265625 C189.011719,59.265625 190.574219,59.5390625 191.511719,59.9296875 L191.511719,49.890625 C190.730469,49.65625 189.597656,49.4609375 188.269531,49.4609375 C183.347656,49.4609375 179.792969,52.3515625 178.308594,57.6640625 L178.074219,57.6640625 L178.074219,50.125 L167.058594,50.125 L167.058594,92 L178.464844,92 Z M207.566406,92 L207.566406,66.7265625 C207.566406,62.0390625 210.496094,58.7578125 214.832031,58.7578125 C219.050781,58.7578125 221.589844,61.4140625 221.589844,65.90625 L221.589844,92 L232.566406,92 L232.566406,66.5703125 C232.566406,61.921875 235.417969,58.7578125 239.753906,58.7578125 C244.167969,58.7578125 246.589844,61.4140625 246.589844,66.2578125 L246.589844,92 L257.996094,92 L257.996094,63.40625 C257.996094,54.96875 252.488281,49.34375 244.285156,49.34375 C238.152344,49.34375 233.152344,52.6640625 231.277344,57.9375 L231.042969,57.9375 C229.636719,52.46875 225.417969,49.34375 219.363281,49.34375 C213.660156,49.34375 209.167969,52.6640625 207.410156,57.703125 L207.175781,57.703125 L207.175781,50.125 L196.160156,50.125 L196.160156,92 L207.566406,92 Z M276.824219,50.125 L276.824219,92 L265.417969,92 L265.417969,50.125 L276.824219,50.125 Z M271.082031,32.7421875 C274.402344,32.7421875 277.019531,35.359375 277.019531,38.6015625 C277.019531,41.8046875 274.402344,44.4609375 271.082031,44.4609375 C267.761719,44.4609375 265.144531,41.8046875 265.144531,38.6015625 C265.144531,35.359375 267.761719,32.7421875 271.082031,32.7421875 Z M295.808594,92 L295.808594,67.9765625 C295.808594,62.546875 299.050781,58.796875 304.167969,58.796875 C309.285156,58.796875 311.863281,61.921875 311.863281,67.390625 L311.863281,92 L323.269531,92 L323.269531,65.0078125 C323.269531,55.203125 318.035156,49.34375 308.738281,49.34375 C302.292969,49.34375 297.878906,52.390625 295.652344,57.5859375 L295.417969,57.5859375 L295.417969,50.125 L284.402344,50.125 L284.402344,92 L295.808594,92 Z M349.207031,49.2265625 C359.949219,49.2265625 366.941406,54.7734375 366.941406,63.2109375 L366.941406,63.2109375 L366.941406,92 L355.925781,92 L355.925781,85.59375 L355.691406,85.59375 C353.347656,90.046875 348.152344,92.6640625 342.917969,92.6640625 C334.949219,92.6640625 328.894531,87.5078125 328.894531,79.96875 C328.894531,72.3515625 334.753906,67.9375 345.183594,67.3125 L345.183594,67.3125 L355.730469,66.6875 L355.730469,63.9140625 C355.730469,60.0078125 352.996094,57.7421875 348.699219,57.7421875 C344.441406,57.7421875 341.746094,59.8515625 341.199219,62.9375 L341.199219,62.9375 L330.769531,62.9375 C331.199219,54.8125 338.113281,49.2265625 349.207031,49.2265625 Z M355.730469,73.6015625 L346.902344,74.1484375 C342.644531,74.4609375 340.222656,76.375 340.222656,79.34375 C340.222656,82.46875 342.800781,84.421875 346.667969,84.421875 C351.628906,84.421875 355.730469,81.1796875 355.730469,76.6484375 L355.730469,76.6484375 L355.730469,73.6015625 Z M385.964844,92 L385.964844,35.6328125 L374.558594,35.6328125 L374.558594,92 L385.964844,92 Z" id="Therminal" fill="#2D2D2D" fill-rule="nonzero"></path>
    </g>
</svg>